<?xml version="1.0" standalone="no"?>
<!DOCTYPE svg PUBLIC "-//W3C//DTD SVG 20010904//EN"
 "http://www.w3.org/TR/2001/REC-SVG-20010904/DTD/svg10.dtd">
<svg version="1.0" xmlns="http://www.w3.org/2000/svg"
 width="704.000000pt" height="1530.000000pt" viewBox="0 0 704.000000 1530.000000"
 preserveAspectRatio="xMidYMid meet">

<g transform="translate(0.000000,1530.000000) scale(0.100000,-0.100000)"
fill="#000000" stroke="none">
<path d="M2368 8861 c-178 -57 -303 -208 -329 -395 -6 -49 -7 -82 -1 -88 13
-13 103 5 165 31 62 27 166 130 201 199 34 67 56 153 56 219 0 61 -2 62 -92
34z"/>
<path d="M2370 8393 c-14 -3 -74 -20 -134 -39 -142 -44 -194 -44 -355 1 -149
42 -252 46 -350 16 -217 -67 -361 -291 -378 -583 l-6 -106 44 -7 c24 -3 77 -5
117 -3 l73 3 30 70 c16 39 50 120 75 180 25 61 49 113 53 118 4 4 22 -55 39
-130 71 -311 96 -413 102 -413 3 0 30 57 60 128 29 70 57 131 61 135 4 5 17
-21 29 -57 12 -36 25 -66 29 -66 4 0 15 26 25 58 63 206 129 405 132 397 4
-12 94 -445 94 -451 0 -2 88 -4 195 -4 l195 0 0 -35 0 -35 -227 2 -228 3 -21
105 c-12 58 -23 110 -24 115 -1 10 -18 -41 -97 -294 -39 -124 -40 -125 -74
-21 -12 36 -24 68 -28 72 -4 4 -29 -45 -56 -110 -27 -64 -58 -137 -68 -162
l-20 -45 -13 55 c-17 67 -100 433 -109 478 -4 18 -10 30 -15 27 -4 -3 -25 -48
-46 -100 l-37 -95 -140 0 -140 0 7 -49 c26 -193 147 -462 285 -633 139 -172
240 -202 436 -132 70 25 124 37 180 41 74 5 90 2 210 -37 156 -50 218 -51 305
-4 93 50 211 202 305 392 67 135 67 133 -2 175 -140 86 -224 237 -224 408 0
147 45 253 155 363 l69 70 -69 66 c-74 70 -130 103 -217 126 -49 13 -171 17
-227 7z"/>
<path d="M4002 7369 c-131 -66 -146 -281 -27 -381 30 -25 99 -41 155 -36 103
10 170 99 170 223 -1 136 -63 207 -189 213 -53 2 -75 -1 -109 -19z m168 -44
c43 -22 70 -82 70 -152 0 -105 -52 -168 -140 -168 -55 0 -94 23 -124 74 -25
44 -25 137 0 186 35 67 126 95 194 60z"/>
<path d="M3030 7170 l0 -210 30 0 30 0 0 210 0 210 -30 0 -30 0 0 -210z"/>
<path d="M3155 7170 l0 -210 28 0 27 0 0 85 0 85 68 0 c129 1 171 22 192 98
14 54 -3 108 -43 132 -27 17 -51 20 -152 20 l-120 0 0 -210z m248 128 c17 -22
18 -33 11 -60 -12 -41 -62 -60 -144 -56 l-55 3 -3 73 -3 73 87 -3 c81 -3 88
-5 107 -30z"/>
<path d="M3520 7170 l0 -210 30 0 30 0 0 100 0 100 105 0 105 0 0 -100 0 -100
30 0 30 0 0 210 0 210 -30 0 -30 0 0 -85 0 -85 -105 0 -105 0 0 85 0 85 -30 0
-30 0 0 -210z"/>
<path d="M4340 7171 l0 -211 30 0 30 0 2 165 3 165 105 -165 c100 -159 105
-165 137 -165 l33 0 0 210 0 210 -30 0 -30 0 -2 -158 -3 -159 -100 156 c-98
152 -101 156 -138 159 l-37 3 0 -210z"/>
<path d="M4740 7170 l0 -210 160 0 160 0 0 25 0 25 -130 0 -130 0 0 70 0 70
115 0 115 0 0 25 0 25 -115 0 -115 0 0 65 0 65 125 0 125 0 0 25 0 25 -155 0
-155 0 0 -210z"/>
</g>
</svg>
